<svg xmlns="http://www.w3.org/2000/svg" version="1.1" xmlns:xlink="http://www.w3.org/1999/xlink" xmlns:svgjs="http://svgjs.dev/svgjs" width="100%" height="100%" viewBox="0 0 1000 600"><rect width="1000" height="600" x="0" y="0" fill="transparent"/><g><rect width="333.3333333333333" height="333.3333333333333" y="331.0136551707194" fill="#1890ff" transform="matrix(0.4048039577090766,0,0,0.40480395770907657,0,98.53702145720413)" x="308.7912292480468"/><path d="M402.731488553312 572.680334693013L402.731488553312 572.680334693013Q387.5933454955744 572.680334693013 375.1604979652653 568.651171141524Q362.7276504349561 564.6220075900349 354.2376272371755 557.9738877300779L354.2376272371755 557.9738877300779L364.1954171572842 541.3967576896657Q371.64936972753907 547.6131814548203 380.9740053752709 551.5560057873488Q390.2986410230028 555.4988301198774 402.731488553312 555.4988301198774L402.731488553312 555.4988301198774Q417.6393936938216 555.4988301198774 426.3596548088301 549.2824063547229Q435.0511361841851 543.0659825895683 435.0511361841851 532.5038181367362L435.0511361841851 532.5038181367362Q435.0511361841851 526.488852549156 432.57607857398466 521.8265347252901Q430.0722412241308 517.1642169014242 422.9348657900644 512.7033572551327Q415.76871061634455 508.2424976088412 401.8968761033607 503.0621444712124L401.8968761033607 503.0621444712124Q386.98897096285106 497.27741680086024 378.0672516702681 491.34879043224055Q369.14553237768513 485.4489438032744 365.3178270037705 477.8798722744056Q361.4901216298559 470.3395804851903 361.4901216298559 459.9788742099327L361.4901216298559 459.9788742099327Q361.4901216298559 449.61816793467506 367.18851008124756 441.214483955855Q372.8868985326393 432.8107999770349 383.96709829923424 427.74556579802004Q395.04729806582924 422.6803316190052 410.81859539594365 422.6803316190052L410.81859539594365 422.6803316190052Q423.6543592814017 422.6803316190052 433.8999465980454 425.2705081878196Q444.17431365434254 427.860684756634 453.9018656572233 432.6093417994604L453.9018656572233 432.6093417994604L446.649371264543 449.3879300174471Q439.5983350494371 445.24364750734406 430.1873601827447 442.4520127609552Q420.7476055763989 439.66037801456633 410.3868993011412 439.66037801456633L410.3868993011412 439.66037801456633Q396.7165229657318 439.66037801456633 388.8308743006747 445.0421893297696Q380.9740053752709 450.4240006449729 380.9740053752709 458.94280358240695L380.9740053752709 458.94280358240695Q380.9740053752709 464.3246148976102 383.24760480789695 468.46889740771326Q385.5212042405229 472.61317991781635 392.2556633194404 476.5560042503449Q398.99012239835787 480.47004884322 412.45904055619275 485.4489438032744L412.45904055619275 485.4489438032744Q428.6332542414561 491.4639093908545 438.04422910814844 498.083249511158Q447.4839837144943 504.731369371115 451.4268080470229 512.5018990775582Q455.3696323795515 520.2724287840015 455.3696323795515 530.2014389644567L455.3696323795515 530.2014389644567Q455.3696323795515 543.6703571222916 448.63517330063405 553.2252306872515Q441.90071422171656 562.7513245125577 429.98590200517026 567.7302194726121Q418.07108978862396 572.680334693013 402.731488553312 572.680334693013ZM522.4839852514983 571.8745019827152L522.4839852514983 571.8745019827152Q510.68429199356586 571.8745019827152 501.8776916595969 571.2413477103383Q493.0710913256279 570.6081934379615 484.3796099502729 569.8023607276637L484.3796099502729 569.8023607276637L484.3796099502729 425.55830558435457Q494.10716195315365 424.5222349568288 503.43179760088555 424.00419964306593Q512.7564332486174 423.48616432930305 524.7863644237777 423.48616432930305L524.7863644237777 423.48616432930305Q543.4356357192414 423.48616432930305 556.9908930960369 429.2996717393087Q570.5749302124857 435.11317914931436 579.3815305464548 445.24364750734406Q588.1881308804238 455.40289560502725 592.4187526094872 468.78547454390167Q596.6781540782044 482.13927374312266 596.6781540782044 497.47887497843465L596.6781540782044 497.47887497843465Q596.6781540782044 512.5882382965187 592.3324133905269 526.0571564543536Q587.9866727028493 539.5260746121886 578.9498344516524 549.8004416684857Q569.941775940109 560.0460289851294 555.9548224685111 565.9458756140956Q541.9678689969132 571.8745019827152 522.4839852514983 571.8745019827152ZM523.117139523875 554.6642176699261L523.117139523875 554.6642176699261Q541.7664108193387 554.6642176699261 553.5661040772711 547.4117232772458Q565.3945770748569 540.1592288845654 570.9778465676347 527.2083460404933Q576.589895800066 514.2574631964213 576.589895800066 497.47887497843465L576.589895800066 497.47887497843465Q576.589895800066 482.5421900982716 570.9778465676347 469.504968035239Q565.3945770748569 456.438966232553 553.796341994499 448.46697834853535Q542.1693271744878 440.4949904645176 524.1532101514008 440.4949904645176L524.1532101514008 440.4949904645176Q518.1382445638208 440.4949904645176 513.1593496037663 440.81156760070604Q508.2092343833654 441.09936499724097 504.0649518732624 441.5310610920434L504.0649518732624 441.5310610920434L504.0649518732624 553.6281470424003Q508.41069256093994 554.2613013147773 513.1593496037663 554.4627594923517Q517.9367863862462 554.6642176699261 523.117139523875 554.6642176699261Z " fill="white" transform="matrix(0.4048039577090766,0,0,0.40480395770907657,0,98.53702145720413)"/><path d="M772.1424100034496 572.6803347585521L772.1424100034496 572.6803347585521Q757.5690814313245 572.6803347585521 745.60011195764 568.8015020587469Q733.6311424839556 564.9226693589418 725.4578878665089 558.5225954042633L725.4578878665089 558.5225954042633L735.0441458245988 542.5639694393506Q742.2199863192384 548.5484541761928 751.1967134245018 552.3441690324307Q760.1734405297651 556.1398838886687 772.1424100034496 556.1398838886687L772.1424100034496 556.1398838886687Q786.4940909927287 556.1398838886687 794.8889931930214 550.1553991518264Q803.2561894454583 544.170914414984 803.2561894454583 534.0028315519235L803.2561894454583 534.0028315519235Q803.2561894454583 528.2122884500715 800.8734779298636 523.7239248974397Q798.4630604664133 519.235561344808 791.5919853981869 514.9411394271666Q784.6932043821049 510.6467175095252 771.3389375156329 505.65964689548997L771.3389375156329 505.65964689548997Q756.9872565263538 500.09075137648404 748.3984126910709 494.38332611819925Q739.809568855788 488.70360680777026 736.1246777909731 481.4169425217077Q732.4397867261582 474.1579841835009 732.4397867261582 464.18384295543046L732.4397867261582 464.18384295543046Q732.4397867261582 454.2097017273601 737.925564401597 446.1195649534807Q743.4113420770358 438.0294281796014 754.0781320015 433.1531813569892Q764.7449219259641 428.27693453437695 779.9277813509158 428.27693453437695L779.9277813509158 428.27693453437695Q792.2846340945808 428.27693453437695 802.1479515312282 430.7704698413946Q812.0389749157313 433.26400514841214 821.4035852909752 437.8354865446111L821.4035852909752 437.8354865446111L814.421686431326 453.9880541445141Q807.633729206667 449.9983976532859 798.5738842578363 447.310920711278Q789.4863333611498 444.6234437692701 779.5121921330795 444.6234437692701L779.5121921330795 444.6234437692701Q766.3518669015976 444.6234437692701 758.7604371891218 449.8044560182956Q751.1967134245018 454.9854682673211 751.1967134245018 463.18642883262345L751.1967134245018 463.18642883262345Q751.1967134245018 468.3674410816489 753.385483305106 472.3570975728771Q755.5742531857105 476.34675406410526 762.0574449839562 480.14246892034316Q768.540636782202 483.91047782872533 781.5070203786935 488.70360680777026L781.5070203786935 488.70360680777026Q797.0777630736258 494.49414990962225 806.1376080224563 500.86651791644505Q815.2251589191427 507.2665918711235 819.0208737753807 514.7471977921764Q822.8165886316185 522.2278037132292 822.8165886316185 531.7863557234633L822.8165886316185 531.7863557234633Q822.8165886316185 544.7527393199549 816.3333968333728 553.9511140080642Q809.850205035127 563.1217827483179 798.379942622846 567.9149117273629Q786.909680210565 572.6803347585521 772.1424100034496 572.6803347585521ZM866.7028100351284 570.2976232429575L848.7493558246016 570.2976232429575L848.7493558246016 466.5665544710251L866.0932791823019 466.5665544710251L866.0932791823019 483.91047782872533Q871.6898806491637 475.54328157628845 880.2510185365908 469.86356226585946Q888.8398623718737 464.18384295543046 899.8114177227511 464.18384295543046L899.8114177227511 464.18384295543046Q912.1682704664161 464.18384295543046 920.0644656053051 470.1683276922727Q927.9329547963385 476.152812429115 931.11913879975 486.1269536571854L931.11913879975 486.1269536571854Q937.2975651715824 476.928578969076 945.7755852154423 470.55621096225326Q954.2536052593022 464.18384295543046 966.8321055858131 464.18384295543046L966.8321055858131 464.18384295543046Q983.7881456735329 464.18384295543046 992.0722240824024 474.85063287989465Q1000.356302491272 485.5174228043589 1000.356302491272 502.66740452706887L1000.356302491272 502.66740452706887L1000.356302491272 570.2976232429575L982.4028482807454 570.2976232429575L982.4028482807454 504.08040786771215Q982.4028482807454 493.30279415182497 977.4157776667101 486.62566071858896Q972.4287070526749 479.92082133749716 963.6459215824017 479.92082133749716L963.6459215824017 479.92082133749716Q954.6691944771384 479.92082133749716 946.9946469210953 486.62566071858896Q939.2923934171965 493.30279415182497 933.5295562632002 502.27952125708833L933.5295562632002 502.27952125708833L933.5295562632002 570.2976232429575L915.5761020526735 570.2976232429575L915.5761020526735 504.08040786771215Q915.5761020526735 493.30279415182497 910.5890314386382 486.62566071858896Q905.6019608246031 479.92082133749716 896.81917535433 479.92082133749716L896.81917535433 479.92082133749716Q888.0363898840568 479.92082133749716 880.2510185365908 486.4040131357429Q872.4656471891246 492.8872049339887 866.7028100351284 501.66999040426185L866.7028100351284 501.66999040426185L866.7028100351284 570.2976232429575ZM1070.9510576277262 572.6803347585521L1070.9510576277262 572.6803347585521Q1057.9846740312346 572.6803347585521 1047.4287078981934 566.1140251167391Q1036.8450358172963 559.5200095270702 1030.5557856540408 547.4679222098185Q1024.2942414386412 535.3881289447111 1024.2942414386412 519.0416197098178L1024.2942414386412 519.0416197098178Q1024.2942414386412 503.4708770148857 1030.5557856540408 491.1140242712206Q1036.8450358172963 478.7294655796999 1047.9274149595967 471.4428012936373Q1058.9820881540418 464.18384295543046 1073.3614750911765 464.18384295543046L1073.3614750911765 464.18384295543046Q1082.3382021964399 464.18384295543046 1089.6248664825025 467.2592031674189Q1096.8838248207094 470.362269327263 1102.2864846525808 474.9337507234619L1102.2864846525808 474.9337507234619L1102.2864846525808 466.5665544710251L1118.6329938874737 466.5665544710251L1118.6329938874737 545.1683285377912Q1118.6329938874737 552.7320523024111 1122.3178849522888 555.0316459744386Q1126.0304819649596 557.331239646466 1130.408021726168 557.331239646466L1130.408021726168 557.331239646466L1126.6123068699303 571.2950373657645Q1107.467496901606 571.2950373657645 1103.4778404103781 555.7242946708324L1103.4778404103781 555.7242946708324Q1098.8786530663233 562.1243686255109 1091.01016387529 567.4162046659594Q1083.1416746842565 572.6803347585521 1070.9510576277262 572.6803347585521ZM1074.9407141189545 556.7217087936394L1074.9407141189545 556.7217087936394Q1082.53214383143 556.7217087936394 1089.3201010560892 553.0368177288244Q1096.108058280748 549.3519266640096 1100.6795396769471 543.7553251971478L1100.6795396769471 543.7553251971478L1100.6795396769471 488.1217819027995Q1095.3045857929314 484.3260670465616 1088.8213939946854 482.02647337453425Q1082.3382021964399 479.7268797025069 1075.1623617018004 479.7268797025069L1075.1623617018004 479.7268797025069Q1065.5761037437105 479.7268797025069 1058.2894394576479 484.6308324729748Q1051.0027751715852 489.50707929558706 1046.8191770453668 498.17904097443716Q1042.6355789191484 506.8510026532873 1042.6355789191484 518.4320888569913L1042.6355789191484 518.4320888569913Q1042.6355789191484 529.597585842859 1046.8191770453668 538.2695475217091Q1051.0027751715852 546.9692151484151 1058.4002632490706 551.8454619710272Q1065.7700453787006 556.7217087936394 1074.9407141189545 556.7217087936394ZM1172.299414884064 570.2976232429575L1154.3459606735373 570.2976232429575L1154.3459606735373 466.5665544710251L1171.6898840312374 466.5665544710251L1171.6898840312374 489.1191960256065Q1174.2942431296779 482.5251804359377 1178.6717828908868 476.8454611255088Q1183.077028599951 471.1657418150798 1189.643338241764 467.67479238525516Q1196.2373538314328 464.18384295543046 1205.020139301706 464.18384295543046L1205.020139301706 464.18384295543046Q1208.012381670127 464.18384295543046 1211.0046240385482 464.460902433988Q1213.9968664069693 464.76566786040127 1215.9916946525836 465.3751987132278L1215.9916946525836 465.3751987132278L1210.5890348207122 483.91047782872533Q1206.8210259123298 482.3312388009475 1201.6123077154489 482.3312388009475L1201.6123077154489 482.3312388009475Q1194.2425255858188 482.3312388009475 1187.5653921525827 486.51483692716596Q1180.8882587193466 490.69843505338434 1176.5938368017055 499.4812205236575Q1172.299414884064 508.2640059939306 1172.299414884064 521.8122144953929L1172.299414884064 521.8122144953929L1172.299414884064 570.2976232429575ZM1274.2295970453724 572.6803347585521L1274.2295970453724 572.6803347585521Q1259.268385203267 572.6803347585521 1250.5964235244169 562.8170173219047Q1241.9244618455668 552.9536998852573 1241.9244618455668 534.5846564568942L1241.9244618455668 534.5846564568942L1241.9244618455668 485.9053060743394L1223.9710076350398 485.9053060743394L1223.9710076350398 470.362269327263L1242.312345115547 470.362269327263L1246.1080599717852 437.64154490962085L1259.8779160560935 437.64154490962085L1259.8779160560935 470.362269327263L1288.6089839825072 470.362269327263L1288.6089839825072 485.9053060743394L1259.8779160560935 485.9053060743394L1259.8779160560935 535.9976597975375Q1259.8779160560935 547.5510400533858 1264.7541628787058 552.1502273974404Q1269.6581156491734 556.7217087936394 1276.418366925977 556.7217087936394L1276.418366925977 556.7217087936394Q1281.405437540012 556.7217087936394 1285.8938010926436 555.1424697658616Q1290.3821646452757 553.535524790228 1294.1778795015134 551.3467549096237L1294.1778795015134 551.3467549096237L1299.1649501155484 565.6984358989027Q1295.1752936243201 568.1088533623531 1288.3873363996613 570.4084470343805Q1281.6270851228583 572.6803347585521 1274.2295970453724 572.6803347585521ZM1416.2779917018088 572.6803347585521L1416.2779917018088 572.6803347585521Q1403.5055497403073 572.6803347585521 1392.9218776594103 566.1140251167391Q1382.365911526369 559.5200095270702 1376.159779206681 547.4679222098185Q1369.9813528348486 535.3881289447111 1369.9813528348486 519.0416197098178L1369.9813528348486 519.0416197098178Q1369.9813528348486 503.2769353798954 1376.270602998104 490.8923766883746Q1382.5598531613596 478.5355239447096 1393.0327014508334 471.35968345007007Q1403.5055497403073 464.18384295543046 1416.0563441189624 464.18384295543046L1416.0563441189624 464.18384295543046Q1426.4460745648694 464.18384295543046 1433.9266804859221 468.3674410816489Q1441.407286406975 472.55103920786735 1445.5908845331933 476.928578969076L1445.5908845331933 476.928578969076L1445.5908845331933 422.6803330675152L1463.54433874372 422.6803330675152L1463.54433874372 545.1683285377912Q1463.54433874372 552.7320523024111 1467.229229808535 555.0316459744386Q1470.91412087335 557.331239646466 1475.3193665824142 557.331239646466L1475.3193665824142 557.331239646466L1471.5236517261765 571.2950373657645Q1452.5727833928427 571.2950373657645 1448.3891852666243 556.1398838886687L1448.3891852666243 556.1398838886687Q1443.98393955756 562.3183102605011 1436.1154503665266 567.4993225095266Q1428.2469611754932 572.6803347585521 1416.2779917018088 572.6803347585521ZM1420.2676481930366 556.7217087936394L1420.2676481930366 556.7217087936394Q1427.6374303226667 556.7217087936394 1434.3145637559028 553.2307593638147Q1440.991697189139 549.73980993399 1445.5908845331933 544.170914414984L1445.5908845331933 544.170914414984L1445.5908845331933 492.69326329899843Q1441.7951696769555 487.9001343199535 1435.0072124522962 483.82735998515807Q1428.2469611754932 479.7268797025069 1420.0460006101907 479.7268797025069L1420.0460006101907 479.7268797025069Q1410.4874485999567 479.7268797025069 1403.3116081053172 484.90789195153235Q1396.108061662822 490.1166101484136 1392.2292289630163 498.7885718272637Q1388.3503962632112 507.46053350611385 1388.3503962632112 518.4320888569913L1388.3503962632112 518.4320888569913Q1388.3503962632112 529.4036442078688 1392.53399438943 538.0756058867189Q1396.7175925156484 546.7475675655689 1404.0042568017107 551.7346381796042Q1411.2909210877733 556.7217087936394 1420.2676481930366 556.7217087936394ZM1540.9547570526888 572.6803347585521L1540.9547570526888 572.6803347585521Q1526.1874868455734 572.6803347585521 1514.4124590068795 565.8092596903258Q1502.6374311681852 558.9381846220995 1495.960297734949 546.6644497220018Q1489.283164301713 534.3907148219039 1489.283164301713 518.4320888569913L1489.283164301713 518.4320888569913Q1489.283164301713 501.66999040426185 1496.0711215263718 489.50707929558706Q1502.8313728031753 477.34416818691227 1514.6064006418696 470.7501525972435Q1526.381428480564 464.18384295543046 1540.9547570526888 464.18384295543046L1540.9547570526888 464.18384295543046Q1555.5003796769583 464.18384295543046 1567.1645837242295 470.7501525972435Q1578.8564937193564 477.34416818691227 1585.7275687875826 489.39625550416406Q1592.5986438558089 501.47604876927153 1592.5986438558089 518.0442055870108L1592.5986438558089 518.0442055870108Q1592.5986438558089 534.5846564568942 1585.8383925790058 546.858391356992Q1579.0504353543465 559.1321262570898 1567.3862313070754 565.9200834817489Q1555.6943213119484 572.6803347585521 1540.9547570526888 572.6803347585521ZM1540.9547570526888 556.7217087936394L1540.9547570526888 556.7217087936394Q1556.6917354347556 556.7217087936394 1565.4745209050288 546.0549188691753Q1574.2573063753016 535.3881289447111 1574.2573063753016 518.4320888569913L1574.2573063753016 518.4320888569913Q1574.2573063753016 508.07006435894033 1569.8797666140931 499.37039673223444Q1565.4745209050288 490.69843505338434 1557.9939149839756 485.4065990129359Q1550.5133090629229 480.14246892034316 1540.9547570526888 480.14246892034316L1540.9547570526888 480.14246892034316Q1525.1900727227667 480.14246892034316 1516.4072872524935 490.5044934183941Q1507.6245017822202 500.86651791644505 1507.6245017822202 518.0442055870108L1507.6245017822202 518.0442055870108Q1507.6245017822202 528.4062300850617 1512.0297474912845 537.272133398902Q1516.4072872524935 546.1657426605982 1523.8878931735462 551.4575787010467Q1531.368499094599 556.7217087936394 1540.9547570526888 556.7217087936394ZM1660.2288625716978 572.6803347585521L1660.2288625716978 572.6803347585521Q1645.4615923645824 572.6803347585521 1633.714270473744 565.8092596903258Q1621.9392426350496 558.9381846220995 1615.2621092018135 546.6644497220018Q1608.5572698207216 534.3907148219039 1608.5572698207216 518.4320888569913L1608.5572698207216 518.4320888569913Q1608.5572698207216 501.66999040426185 1615.3452270453809 489.50707929558706Q1622.1331842700397 477.34416818691227 1633.908212108734 470.7501525972435Q1645.6832399474283 464.18384295543046 1660.2288625716978 464.18384295543046L1660.2288625716978 464.18384295543046Q1674.8021911438227 464.18384295543046 1686.4663951910939 470.7501525972435Q1698.1305992383654 477.34416818691227 1705.0293802544475 489.39625550416406Q1711.9004553226737 501.47604876927153 1711.9004553226737 518.0442055870108L1711.9004553226737 518.0442055870108Q1711.9004553226737 534.5846564568942 1705.1124980980144 546.858391356992Q1698.3245408733555 559.1321262570898 1686.6603368260844 565.9200834817489Q1674.9961327788133 572.6803347585521 1660.2288625716978 572.6803347585521ZM1660.2288625716978 556.7217087936394L1660.2288625716978 556.7217087936394Q1675.99354690162 556.7217087936394 1684.7763323718932 546.0549188691753Q1693.5591178421664 535.3881289447111 1693.5591178421664 518.4320888569913L1693.5591178421664 518.4320888569913Q1693.5591178421664 508.07006435894033 1689.1538721331021 499.37039673223444Q1684.7763323718932 490.69843505338434 1677.2957264508404 485.4065990129359Q1669.8151205297877 480.14246892034316 1660.2288625716978 480.14246892034316L1660.2288625716978 480.14246892034316Q1644.4641782417752 480.14246892034316 1635.7090987193578 490.5044934183941Q1626.9263132490846 500.86651791644505 1626.9263132490846 518.0442055870108L1626.9263132490846 518.0442055870108Q1626.9263132490846 528.4062300850617 1631.3038530102936 537.272133398902Q1635.7090987193578 546.1657426605982 1643.1897046404106 551.4575787010467Q1650.6703105614638 556.7217087936394 1660.2288625716978 556.7217087936394ZM1753.7918484805691 570.2976232429575L1735.8383942700425 570.2976232429575L1735.8383942700425 466.5665544710251L1753.182317627743 466.5665544710251L1753.182317627743 489.1191960256065Q1755.7866767261835 482.5251804359377 1760.164216487392 476.8454611255088Q1764.5694621964567 471.1657418150798 1771.1357718382696 467.67479238525516Q1777.7297874279384 464.18384295543046 1786.5125728982116 464.18384295543046L1786.5125728982116 464.18384295543046Q1789.5048152666322 464.18384295543046 1792.4970576350538 464.460902433988Q1795.489300003475 464.76566786040127 1797.4841282490888 465.3751987132278L1797.4841282490888 465.3751987132278L1792.0814684172174 483.91047782872533Q1788.313459508835 482.3312388009475 1783.104741311954 482.3312388009475L1783.104741311954 482.3312388009475Q1775.7349591823245 482.3312388009475 1769.0578257490884 486.51483692716596Q1762.3806923158522 490.69843505338434 1758.0862703982107 499.4812205236575Q1753.7918484805691 508.2640059939306 1753.7918484805691 521.8122144953929L1753.7918484805691 521.8122144953929L1753.7918484805691 570.2976232429575ZM1862.1221045965563 572.6803347585521L1862.1221045965563 572.6803347585521Q1853.145377491293 572.6803347585521 1845.2491823524037 569.4110329115734Q1837.3806931613708 566.1140251167391 1832.1996809123452 561.7087794076747L1832.1996809123452 561.7087794076747L1832.1996809123452 570.2976232429575L1815.4375824596154 570.2976232429575L1815.4375824596154 422.6803330675152L1833.3910366701425 422.6803330675152L1833.3910366701425 477.34416818691227Q1837.3806931613708 472.7449808428576 1845.0552407174137 468.45055892521617Q1852.7297882734565 464.18384295543046 1863.313460354354 464.18384295543046L1863.313460354354 464.18384295543046Q1875.2824298280384 464.18384295543046 1885.7552781175123 470.44538717083026Q1896.2281264069861 476.73463733408573 1902.600494413809 488.620488964203Q1909.0005683684872 500.4786346464645 1909.0005683684872 517.4346747341842L1909.0005683684872 517.4346747341842Q1909.0005683684872 529.7915274778493 1905.0109118772593 539.9873162887657Q1901.021255386031 550.1553991518264 1894.3164160049396 557.4420634378889Q1887.639282571703 564.7010217760958 1879.2720863192662 568.6906782673238Q1870.8771841189737 572.6803347585521 1862.1221045965563 572.6803347585521ZM1857.3289756175113 556.7217087936394L1857.3289756175113 556.7217087936394Q1867.1091752105917 556.7217087936394 1874.5897811316445 551.9562857624502Q1882.0703870526972 547.1631567834053 1886.337103022483 538.3803713131322Q1890.631524940124 529.597585842859 1890.631524940124 518.0442055870108L1890.631524940124 518.0442055870108Q1890.631524940124 506.07523611332624 1886.337103022483 497.4863922780434Q1882.0703870526972 488.8975484427605 1874.9776644016251 484.3260670465616Q1867.8849417505526 479.7268797025069 1859.3238038631257 479.7268797025069L1859.3238038631257 479.7268797025069Q1850.7349600278426 479.7268797025069 1843.8638849596164 484.02130162014834Q1836.9651039435344 488.3157235377897 1833.3910366701425 493.30279415182497L1833.3910366701425 493.30279415182497L1833.3910366701425 548.7423958111831Q1837.9625180663415 552.3441690324307 1844.1686503860296 554.5329389130351Q1850.347076757862 556.7217087936394 1857.3289756175113 556.7217087936394ZM1975.411725378723 572.6803347585521L1975.411725378723 572.6803347585521Q1953.0807314069875 572.6803347585521 1940.0035240190728 558.439477560696Q1926.9540225790142 544.170914414984 1926.9540225790142 518.4320888569913L1926.9540225790142 518.4320888569913Q1926.9540225790142 502.86134616205914 1932.8276835244337 490.6153172098171Q1938.7013444698528 478.34158230971934 1949.2850165507498 471.248859658647Q1959.8686886316464 464.18384295543046 1973.8324863509451 464.18384295543046L1973.8324863509451 464.18384295543046Q1988.7936981930507 464.18384295543046 1998.6570156296984 470.66703475367626Q2008.5203330663458 477.15022655192206 2013.5074036803808 488.1217819027995Q2018.4944742944162 499.09333725367696 2018.4944742944162 512.2536624851588L2018.4944742944162 512.2536624851588Q2018.4944742944162 519.235561344808 2017.912649389445 525.8018709866211L2017.912649389445 525.8018709866211L1945.2953600595215 525.8018709866211Q1947.0962466701453 540.3751995587462 1955.463442922582 548.5484541761928Q1963.8583451228747 556.7217087936394 1977.600495259327 556.7217087936394L1977.600495259327 556.7217087936394Q1986.5772223645909 556.7217087936394 1993.7807688070861 554.8377043394484Q2000.9566093017256 552.9536998852573 2007.5229189435386 549.9614575168362L2007.5229189435386 549.9614575168362L2011.7342230176127 565.3105526289223Q2004.5306765751175 568.4967366323336 1995.5539494698542 570.6023886693707Q1986.5772223645909 572.6803347585521 1975.411725378723 572.6803347585521ZM1945.1014184245314 511.2562483623517L1945.1014184245314 511.2562483623517L2001.9540234245328 511.2562483623517Q2001.9540234245328 496.10109488525586 1994.3625937120569 487.9001343199535Q1986.7988699474367 479.7268797025069 1973.4168971331087 479.7268797025069L1973.4168971331087 479.7268797025069Q1961.8635168772607 479.7268797025069 1954.2720871647848 487.81701647638624Q1946.6806574523089 495.87944730240986 1945.1014184245314 511.2562483623517ZM2073.9617819016303 572.6803347585521L2073.9617819016303 572.6803347585521Q2064.7911131613764 572.6803347585521 2057.3936250838906 569.1893853287274Q2050.0238429542615 565.6984358989027 2045.7294210366194 557.9407704992925Q2041.4349991189779 550.1553991518264 2041.4349991189779 537.7708404603056L2041.4349991189779 537.7708404603056L2041.4349991189779 422.6803330675152L2059.388453329505 422.6803330675152L2059.388453329505 535.9976597975375Q2059.388453329505 546.7475675655689 2063.876816882137 551.9562857624502Q2068.3651804347683 557.1372980114757 2076.344493417225 557.1372980114757L2076.344493417225 557.1372980114757Q2080.140208273463 557.1372980114757 2083.825099338277 556.2230017322358Q2087.537696350948 555.3364114008518 2090.114349501533 554.1450556430545L2090.114349501533 554.1450556430545L2094.519595210598 568.6906782673238Q2090.91782198935 570.2976232429575 2085.625985948901 571.4889790007547Q2080.3341499084527 572.6803347585521 2073.9617819016303 572.6803347585521ZM2140.9824697646927 572.6803347585521L2140.9824697646927 572.6803347585521Q2131.811801024439 572.6803347585521 2124.442018894809 569.1893853287274Q2117.044530817323 565.6984358989027 2112.7501088996814 557.9407704992925Q2108.4833929298957 550.1553991518264 2108.4833929298957 537.7708404603056L2108.4833929298957 537.7708404603056L2108.4833929298957 422.6803330675152L2126.436847140423 422.6803330675152L2126.436847140423 535.9976597975375Q2126.436847140423 546.7475675655689 2130.9252106930544 551.9562857624502Q2135.4135742456865 557.1372980114757 2143.392887228143 557.1372980114757L2143.392887228143 557.1372980114757Q2147.1608961365246 557.1372980114757 2150.8734931491954 556.2230017322358Q2154.5583842140104 555.3364114008518 2157.1350373645955 554.1450556430545L2157.1350373645955 554.1450556430545L2161.5402830736593 568.6906782673238Q2157.9385098524117 570.2976232429575 2152.6466738119634 571.4889790007547Q2147.382543719371 572.6803347585521 2140.9824697646927 572.6803347585521Z " fill="#1890ff" transform="matrix(0.4048039577090766,0,0,0.40480395770907657,0,98.53702145720413)"/></g></svg>